<svg width="644" height="253" viewBox="0 0 644 253" fill="none" xmlns="http://www.w3.org/2000/svg">
<path d="M7.48663 241.352C6.61196 241.352 5.92929 241.107 5.43863 240.616C4.96929 240.125 4.73463 239.421 4.73463 238.504C4.73463 237.651 4.99063 236.957 5.50262 236.424C6.01463 235.891 6.67596 235.624 7.48663 235.624C8.36129 235.624 9.04396 235.88 9.53463 236.392C10.0253 236.883 10.2706 237.587 10.2706 238.504C10.2706 239.336 10.0146 240.019 9.50263 240.552C8.99063 241.085 8.31863 241.352 7.48663 241.352Z" fill="#CACACA" fill-opacity="0.42"/>
<g clip-path="url(#clip0_108_1464)">
<path d="M619.84 45.2606L633.37 58.3623C635.343 60.2722 633.822 63.6008 631.085 63.3625L612.325 61.7195C609.762 61.4944 608.723 58.3019 610.666 56.6121L613.885 53.8141C614.199 53.5409 614.451 53.2037 614.624 52.8251C614.797 52.4465 614.887 52.0353 614.887 51.6191L614.894 47.3518C614.899 44.7786 617.991 43.4709 619.84 45.2606Z" stroke="#CACACA" stroke-opacity="0.42" stroke-width="2" stroke-linecap="round" stroke-linejoin="round"/>
</g>
<path d="M595.587 41.5825L595.583 41.5916M599.232 43.2299L599.228 43.239M602.877 44.8772L602.873 44.8864M606.522 46.5246L606.518 46.5337M610.167 48.172L610.163 48.1811" stroke="#CACACA" stroke-opacity="0.42" stroke-width="2" stroke-linecap="round" stroke-linejoin="round"/>
<path d="M13.4998 237.998C309.655 208.049 399.421 -19.518 592 38.9982" stroke="#CACACA" stroke-opacity="0.42" stroke-width="2" stroke-linecap="round"/>
<defs>
<clipPath id="clip0_108_1464">
<rect width="35" height="35" fill="white" transform="translate(630.792 33) rotate(69.5415)"/>
</clipPath>
</defs>
</svg>
