<svg width="301" height="60" viewBox="0 0 301 60" fill="none" xmlns="http://www.w3.org/2000/svg">
<path d="M17.9991 36.8306C17.569 36.4155 17.0235 36.1343 16.4311 36.0223C15.8386 35.9103 15.2257 35.9726 14.6692 36.2013C14.2901 36.3359 13.9458 36.5506 13.6607 36.8303C13.3756 37.11 13.1567 37.4477 13.0195 37.8196C12.8216 38.2753 12.742 38.7721 12.7877 39.2654C12.8334 39.7587 13.0031 40.2333 13.2815 40.6465C13.56 41.0598 13.9385 41.3989 14.3832 41.6335C14.828 41.8681 15.3251 41.9909 15.8301 41.9909C16.335 41.9909 16.8321 41.8681 17.2769 41.6335C17.7216 41.3989 18.1002 41.0598 18.3786 40.6465C18.6571 40.2333 18.8267 39.7587 18.8724 39.2654C18.9182 38.7721 18.8385 38.2753 18.6406 37.8196C18.4861 37.4563 18.2691 37.1218 17.9991 36.8306ZM42.4385 36.8306C41.8478 36.2959 41.0734 35.999 40.2695 35.999C39.4657 35.999 38.6913 36.2959 38.1005 36.8306C37.8305 37.1218 37.6135 37.4563 37.459 37.8196C37.2209 38.3646 37.1548 38.9671 37.2692 39.5493C37.3835 40.1316 37.6731 40.6669 38.1005 41.0861C38.3974 41.3509 38.7384 41.5638 39.1087 41.7154C39.4744 41.8738 39.8698 41.9556 40.2695 41.9556C40.6693 41.9556 41.0647 41.8738 41.4304 41.7154C41.8003 41.5631 42.1412 41.3503 42.4385 41.0861C42.866 40.6669 43.1556 40.1316 43.2699 39.5493C43.3843 38.9671 43.3181 38.3646 43.0801 37.8196C42.9255 37.4563 42.7085 37.1218 42.4385 36.8306ZM50.3814 50.6309C52.5439 48.9398 54.1944 46.7014 55.1549 44.1574C56.1154 41.6133 56.3493 38.8602 55.8314 36.1953L51.249 12.2209C50.5921 8.78636 48.7321 5.68501 45.9908 3.45338C43.2495 1.22174 39.7993 0.000179202 36.237 0H19.8595C16.2977 0.000877994 12.8483 1.22276 10.1076 3.45433C7.36693 5.68591 5.50742 8.78686 4.85063 12.2209L0.268227 36.1953C-0.249346 38.8605 -0.0149677 41.6138 0.946057 44.1578C1.90708 46.7019 3.55825 48.9401 5.72128 50.6309L1.45049 54.8204C1.15871 55.0969 0.925978 55.4275 0.765872 55.7932C0.605766 56.1588 0.521492 56.552 0.517967 56.9499C0.514442 57.3479 0.591737 57.7425 0.745342 58.1108C0.898947 58.4791 1.12579 58.8137 1.41262 59.095C1.69946 59.3764 2.04055 59.5989 2.41599 59.7496C2.79143 59.9003 3.1937 59.9761 3.59933 59.9727C4.00496 59.9692 4.40583 59.8865 4.77855 59.7295C5.15126 59.5724 5.48836 59.3441 5.77016 59.0579L11.4829 53.4539C12.7208 53.7717 13.9945 53.9358 15.2741 53.9424H40.8194C42.1009 53.9372 43.3767 53.7741 44.6167 53.4569L50.3264 59.0579C50.9025 59.6038 51.6742 59.9058 52.4752 59.899C53.2762 59.8922 54.0424 59.577 54.6088 59.0214C55.1753 58.4658 55.4965 57.7141 55.5035 56.9284C55.5105 56.1426 55.2025 55.3856 54.6461 54.8204L50.3814 50.6309ZM10.8505 13.3268C11.2458 11.2656 12.3627 9.4047 14.0083 8.0657C15.6538 6.7267 17.7246 5.99377 19.8626 5.9936H36.2431C38.3801 5.99517 40.4494 6.72873 42.0937 8.06761C43.738 9.40649 44.854 11.2666 45.2491 13.3268L46.3091 18.8708C44.0284 21.4173 41.2203 23.4573 38.0722 24.8548C34.924 26.2523 31.5083 26.9752 28.0529 26.9752C24.5974 26.9752 21.1817 26.2523 18.0336 24.8548C14.8854 23.4573 12.0773 21.4173 9.79657 18.8708L10.8505 13.3268ZM47.8672 44.7002C47.0094 45.7173 45.9331 46.5359 44.7152 47.0975C43.4974 47.6591 42.1681 47.9498 40.8225 47.9488H15.2771C13.9306 47.9485 12.6007 47.6572 11.3819 47.0955C10.1632 46.5339 9.08563 45.7157 8.22582 44.6991C7.366 43.6826 6.7451 42.4927 6.40727 41.214C6.06943 39.9354 6.02296 38.5994 6.27117 37.3011L8.44323 25.9373C13.9286 30.4762 20.8736 32.9659 28.0498 32.9659C35.226 32.9659 42.171 30.4762 47.6564 25.9373L49.8254 37.3011C50.0758 38.5996 50.0304 39.9363 49.6924 41.2155C49.3544 42.4946 48.7321 43.6847 47.8702 44.7002" fill="#35B368"/>
<path d="M83.2359 45.9399V30.5839L83.5439 32.7399L71.0919 15.1399H79.5839L89.0879 28.7799L85.2159 28.6479L93.7959 15.1399H102.024L90.0999 33.2239L90.7599 30.2319V45.9399H83.2359ZM118.097 46.3799C115.75 46.3799 113.609 45.9839 111.673 45.1919C109.737 44.3999 108.05 43.2853 106.613 41.8479C105.176 40.4106 104.061 38.7239 103.269 36.7879C102.477 34.8519 102.081 32.7253 102.081 30.4079C102.081 28.0906 102.477 25.9639 103.269 24.0279C104.061 22.0919 105.176 20.4053 106.613 18.9679C108.05 17.5306 109.737 16.4159 111.673 15.6239C113.609 14.8319 115.736 14.4359 118.053 14.4359C120.37 14.4359 122.497 14.8319 124.433 15.6239C126.369 16.4159 128.056 17.5306 129.493 18.9679C130.93 20.4053 132.03 22.0919 132.793 24.0279C133.585 25.9639 133.981 28.0906 133.981 30.4079C133.981 32.6959 133.585 34.8226 132.793 36.7879C132.03 38.7239 130.93 40.4106 129.493 41.8479C128.056 43.2853 126.369 44.3999 124.433 45.1919C122.497 45.9839 120.385 46.3799 118.097 46.3799ZM118.053 39.3399C119.256 39.3399 120.356 39.1199 121.353 38.6799C122.38 38.2399 123.26 37.6239 123.993 36.8319C124.756 36.0106 125.342 35.0573 125.753 33.9719C126.164 32.8866 126.369 31.6986 126.369 30.4079C126.369 29.1173 126.164 27.9293 125.753 26.8439C125.342 25.7586 124.756 24.8199 123.993 24.0279C123.26 23.2066 122.38 22.5759 121.353 22.1359C120.356 21.6959 119.256 21.4759 118.053 21.4759C116.85 21.4759 115.736 21.6959 114.709 22.1359C113.712 22.5759 112.832 23.2066 112.069 24.0279C111.306 24.8199 110.72 25.7586 110.309 26.8439C109.928 27.9293 109.737 29.1173 109.737 30.4079C109.737 31.6986 109.928 32.9013 110.309 34.0159C110.72 35.1013 111.306 36.0399 112.069 36.8319C112.832 37.6239 113.712 38.2399 114.709 38.6799C115.736 39.1199 116.85 39.3399 118.053 39.3399ZM152.748 46.2039C150.196 46.2039 147.923 45.6906 145.928 44.6639C143.933 43.6079 142.364 42.1706 141.22 40.3519C140.105 38.5333 139.548 36.4506 139.548 34.1039V15.1399H147.116V33.7079C147.116 34.8226 147.365 35.8346 147.864 36.7439C148.363 37.6239 149.037 38.3279 149.888 38.8559C150.739 39.3546 151.692 39.6039 152.748 39.6039C153.863 39.6039 154.845 39.3546 155.696 38.8559C156.576 38.3279 157.28 37.6239 157.808 36.7439C158.336 35.8346 158.6 34.8226 158.6 33.7079V15.1399H165.904V34.1039C165.904 36.4506 165.332 38.5333 164.188 40.3519C163.073 42.1706 161.519 43.6079 159.524 44.6639C157.529 45.6906 155.271 46.2039 152.748 46.2039ZM173.413 45.9399V15.1399H187.273C189.238 15.1399 191.013 15.5653 192.597 16.4159C194.21 17.2666 195.471 18.4399 196.381 19.9359C197.29 21.4026 197.745 23.0746 197.745 24.9519C197.745 26.8879 197.29 28.6333 196.381 30.1879C195.471 31.7133 194.225 32.9159 192.641 33.7959C191.057 34.6759 189.267 35.1159 187.273 35.1159H180.541V45.9399H173.413ZM190.485 45.9399L182.653 32.0359L190.309 30.9359L199.021 45.9399H190.485ZM180.541 29.3959H186.613C187.375 29.3959 188.035 29.2346 188.593 28.9119C189.179 28.5599 189.619 28.0759 189.913 27.4599C190.235 26.8439 190.397 26.1399 190.397 25.3479C190.397 24.5559 190.221 23.8666 189.869 23.2799C189.517 22.6639 189.003 22.1946 188.329 21.8719C187.683 21.5493 186.891 21.3879 185.953 21.3879H180.541V29.3959Z" fill="white"/>
<path d="M209.808 45.9399L200.568 15.1399H208.18L212.8 31.3319C213.005 32.0653 213.181 32.8133 213.328 33.5759C213.504 34.3093 213.636 35.0133 213.724 35.6879C213.841 36.3626 213.929 36.9933 213.988 37.5799C214.047 38.1373 214.105 38.6066 214.164 38.9879H213.196C213.372 37.9026 213.519 36.9346 213.636 36.0839C213.783 35.2333 213.944 34.4413 214.12 33.7079C214.296 32.9453 214.516 32.1533 214.78 31.3319L219.356 19.1439H225.34L229.828 31.3319C230.18 32.2999 230.473 33.2093 230.708 34.0599C230.943 34.9106 231.119 35.7319 231.236 36.5239C231.383 37.2866 231.5 38.0493 231.588 38.8119L230.708 38.9439C230.767 38.4159 230.811 37.9319 230.84 37.4919C230.869 37.0226 230.899 36.5826 230.928 36.1719C230.987 35.7319 231.045 35.2773 231.104 34.8079C231.163 34.3386 231.251 33.8253 231.368 33.2679C231.485 32.6813 231.647 32.0213 231.852 31.2879L236.428 15.1399H243.864L234.624 45.9399H228.904L221.6 28.2079L222.436 28.2959L215.704 45.9399H209.808ZM242.286 45.9399L254.474 15.1399H260.81L272.91 45.9399H265.342L259.534 30.3199C259.299 29.7039 259.064 29.0439 258.83 28.3399C258.595 27.6359 258.36 26.9173 258.126 26.1839C257.891 25.4213 257.656 24.6879 257.422 23.9839C257.216 23.2506 257.04 22.5759 256.894 21.9599L258.214 21.9159C258.038 22.6493 257.832 23.3679 257.598 24.0719C257.392 24.7759 257.172 25.4799 256.938 26.1839C256.732 26.8586 256.498 27.5479 256.234 28.2519C255.97 28.9266 255.72 29.6306 255.486 30.3639L249.678 45.9399H242.286ZM248.094 40.0439L250.426 34.4119H264.594L266.882 40.0439H248.094ZM281.193 45.9399V30.5839L281.501 32.7399L269.049 15.1399H277.541L287.045 28.7799L283.173 28.6479L291.753 15.1399H299.981L288.057 33.2239L288.717 30.2319V45.9399H281.193Z" fill="#35B368"/>
</svg>
