<svg width="25" height="23" viewBox="0 0 25 23" fill="none" xmlns="http://www.w3.org/2000/svg">
<path d="M9.17638 14.2785L15.5408 2.90281C15.6283 2.74615 15.7158 2.59155 15.795 2.42973C15.8669 2.28337 15.9273 2.13598 15.9669 1.97622C16.0502 1.64022 16.0273 1.28979 15.8981 0.969242C15.7719 0.653874 15.5452 0.387881 15.2523 0.211685C14.9644 0.0390266 14.6256 -0.0311555 14.2919 0.0127623C13.9586 0.0570819 13.6534 0.212716 13.4127 0.455958C13.2982 0.569334 13.2044 0.69817 13.118 0.835252C13.0221 0.985733 12.9357 1.1424 12.8482 1.29906L12.4461 2.01745L12.043 1.29803C11.9555 1.1424 11.869 0.985733 11.7732 0.835252C11.689 0.698386 11.5902 0.570878 11.4784 0.454928C11.2437 0.214293 10.9341 0.0585889 10.5993 0.0127623C10.2659 -0.0309147 9.92749 0.039259 9.63991 0.211685C9.34706 0.387939 9.12031 0.653913 8.99409 0.969242C8.8644 1.28932 8.84034 1.64179 8.92534 1.97622C8.96492 2.13598 9.02534 2.28337 9.09617 2.42973C9.17533 2.59155 9.26283 2.74615 9.35033 2.90281L10.6503 5.22599L5.58583 14.2775H2.11507C1.94007 14.2775 1.76508 14.2775 1.59112 14.2878C1.43279 14.2971 1.27863 14.3167 1.12446 14.361C0.801555 14.4537 0.518228 14.6496 0.314065 14.9258C0.110111 15.2038 0.000187314 15.5386 2.39179e-07 15.8821C-0.000186836 16.2257 0.109372 16.5605 0.313024 16.8388C0.518228 17.115 0.800513 17.3098 1.12446 17.4036C1.27863 17.4479 1.43279 17.4675 1.59112 17.4768C1.76508 17.4871 1.94007 17.4871 2.11507 17.4871H15.7575C15.7992 17.397 15.834 17.304 15.8617 17.2088C16.2939 15.7493 15.22 14.2775 13.7419 14.2775L9.17638 14.2785ZM3.24317 18.0117L2.41819 19.5577C2.33277 19.7185 2.24632 19.8772 2.16923 20.0432C2.09784 20.1925 2.042 20.3486 2.00257 20.509C1.91899 20.8524 1.94223 21.2128 2.06924 21.5428C2.19528 21.8706 2.41715 22.1437 2.70151 22.321C2.98484 22.4983 3.31504 22.5704 3.64004 22.524C3.96711 22.4787 4.26502 22.32 4.50043 22.0705C4.61293 21.952 4.7046 21.8211 4.79001 21.6809C4.88376 21.5263 4.96813 21.3655 5.05355 21.2048L6.2504 18.962C6.15665 18.8074 5.26396 17.4469 3.24317 18.0117ZM24.6865 14.9134C24.4855 14.6443 24.2002 14.4486 23.875 14.3569C23.7227 14.3153 23.5662 14.2908 23.4084 14.2837C23.2334 14.2734 23.0594 14.2734 22.8844 14.2734H19.4251L14.8523 6.21854C14.2523 6.84181 13.861 7.63283 13.7315 8.484C13.564 9.54865 13.7644 10.6381 14.3002 11.5761L19.7939 21.2573C19.8814 21.4119 19.9678 21.5665 20.0636 21.715C20.1511 21.8489 20.2449 21.9757 20.3584 22.0901C20.5991 22.3292 20.9043 22.4818 21.2386 22.5261C21.5719 22.5694 21.9084 22.5014 22.199 22.3303C22.4913 22.1573 22.7184 21.8945 22.8459 21.582C22.9761 21.2656 22.998 20.9203 22.9146 20.5884C22.8736 20.4337 22.816 20.2837 22.7428 20.1411C22.6646 19.9813 22.5761 19.8288 22.4886 19.6742L21.222 17.4417H22.8844C23.0594 17.4417 23.2334 17.4417 23.4084 17.4324C23.5667 17.4232 23.7209 17.4036 23.875 17.3603C24.2007 17.2684 24.4864 17.0723 24.6875 16.8027C24.8911 16.5292 25.0007 16.1983 25 15.8586C25.0007 15.5189 24.8911 15.1879 24.6875 14.9145" fill="#282828"/>
</svg>
