<svg width="53" height="53" viewBox="0 0 53 53" fill="none" xmlns="http://www.w3.org/2000/svg">
<circle cx="26.5" cy="26.5" r="26" fill="white" stroke="#282828"/>
<path d="M27 23.9444H33L32.3333 26.5H27V38H24.3333V26.5H19V23.9444H24.3333V21.5524C24.3333 19.2742 24.5813 18.4474 25.0453 17.6143C25.5 16.7912 26.2024 16.1181 27.0613 15.6823C27.9307 15.2377 28.7933 15 31.1707 15C31.8667 15 32.4773 15.0639 33 15.1917V17.5556H31.1707C29.4053 17.5556 28.868 17.6552 28.3187 17.9363C27.9244 18.1338 27.6028 18.4424 27.3973 18.8206C27.104 19.3457 27 19.8607 27 21.5524V23.9444Z" fill="black"/>
</svg>
