<svg width="24" height="24" viewBox="0 0 24 24" fill="none" xmlns="http://www.w3.org/2000/svg">
<path d="M20.9189 10.6529C19.5743 9.88476 18.2333 9.11042 16.8959 8.3299L16.8929 8.3279L4.63986 1.2529C4.43102 1.12521 4.19678 1.04472 3.95356 1.01708C3.71034 0.989446 3.46402 1.01532 3.23186 1.0929C3.2061 1.10181 3.18075 1.11182 3.15586 1.1229C3.09671 1.14241 3.03892 1.1658 2.98286 1.1929C2.74866 1.333 2.55653 1.5336 2.42667 1.77362C2.2968 2.01365 2.234 2.28422 2.24486 2.5569V21.5429C2.23743 21.7969 2.29758 22.0483 2.41916 22.2715C2.54074 22.4946 2.71939 22.6814 2.93686 22.8129C2.9871 22.8375 3.03887 22.8589 3.09186 22.8769C3.12028 22.89 3.14931 22.9016 3.17886 22.9119C3.32192 22.964 3.47263 22.9921 3.62486 22.9949C3.91738 22.9916 4.2039 22.9116 4.45586 22.7629L16.8939 15.5809L20.9149 13.2589C21.1635 13.1344 21.3733 12.9444 21.5217 12.7092C21.6701 12.4741 21.7514 12.2029 21.7569 11.9249C21.7446 11.6572 21.6604 11.3978 21.5131 11.1739C21.3658 10.9501 21.1599 10.7701 20.9189 10.6529ZM4.24386 19.8389V4.1019L12.1839 11.9609L4.24386 19.8389ZM9.26186 17.6769L13.6059 13.3669L14.7559 14.5059L9.26186 17.6769ZM13.6039 10.5519L9.20586 6.1999L14.7599 9.4069L13.6039 10.5519ZM16.5509 13.4689L15.0249 11.9589L16.5529 10.4429C17.2729 10.8619 18.3959 11.5129 19.1689 11.9579L16.5509 13.4689Z" fill="black"/>
</svg>
