<svg width="53" height="53" viewBox="0 0 53 53" fill="none" xmlns="http://www.w3.org/2000/svg">
<circle cx="26.5" cy="26.5" r="26" fill="white" stroke="#282828"/>
<path d="M26 32C27.3261 32 28.5979 31.4732 29.5355 30.5355C30.4732 29.5979 31 28.3261 31 27C31 25.6739 30.4732 24.4021 29.5355 23.4645C28.5979 22.5268 27.3261 22 26 22C24.6739 22 23.4021 22.5268 22.4645 23.4645C21.5268 24.4021 21 25.6739 21 27C21 28.3261 21.5268 29.5979 22.4645 30.5355C23.4021 31.4732 24.6739 32 26 32Z" stroke="black" stroke-width="1.5" stroke-linecap="round" stroke-linejoin="round"/>
<path d="M14.75 32V22C14.75 20.3424 15.4085 18.7527 16.5806 17.5806C17.7527 16.4085 19.3424 15.75 21 15.75H31C32.6576 15.75 34.2473 16.4085 35.4194 17.5806C36.5915 18.7527 37.25 20.3424 37.25 22V32C37.25 33.6576 36.5915 35.2473 35.4194 36.4194C34.2473 37.5915 32.6576 38.25 31 38.25H21C19.3424 38.25 17.7527 37.5915 16.5806 36.4194C15.4085 35.2473 14.75 33.6576 14.75 32Z" stroke="black" stroke-width="1.5"/>
<path d="M32.875 20.138L32.8879 20.1238" stroke="black" stroke-width="1.5" stroke-linecap="round" stroke-linejoin="round"/>
</svg>
