<svg width="53" height="53" viewBox="0 0 53 53" fill="none" xmlns="http://www.w3.org/2000/svg">
<circle cx="26.5" cy="26.5" r="26" fill="white" stroke="#282828"/>
<path d="M25.8558 23.2407C26.8345 22.2406 28.109 21.5863 29.5915 21.5863C31.1485 21.5863 32.6417 22.2048 33.7426 23.3058C34.8435 24.4067 35.462 25.8999 35.462 27.4568V35.462H33.3273V27.4568C33.3273 26.466 32.9337 25.5158 32.2331 24.8152C31.5325 24.1146 30.5823 23.7211 29.5915 23.7211C28.6008 23.7211 27.6505 24.1146 26.95 24.8152C26.2494 25.5158 25.8558 26.466 25.8558 27.4568V35.462H23.7211V22.12H25.8558V23.2407ZM18.3842 19.9853C17.9596 19.9853 17.5524 19.8166 17.2521 19.5164C16.9519 19.2161 16.7832 18.8089 16.7832 18.3842C16.7832 17.9596 16.9519 17.5524 17.2521 17.2521C17.5524 16.9519 17.9596 16.7832 18.3842 16.7832C18.8089 16.7832 19.2161 16.9519 19.5164 17.2521C19.8166 17.5524 19.9853 17.9596 19.9853 18.3842C19.9853 18.8089 19.8166 19.2161 19.5164 19.5164C19.2161 19.8166 18.8089 19.9853 18.3842 19.9853ZM17.3169 22.12H19.4516V35.462H17.3169V22.12Z" fill="#282828"/>
</svg>
