<svg width="53" height="53" viewBox="0 0 53 53" fill="none" xmlns="http://www.w3.org/2000/svg">
<circle cx="26.5" cy="26.5" r="26" fill="white" stroke="#282828"/>
<path d="M37.131 16.8335L37.9644 16.7785C37.9535 16.6149 37.8947 16.4582 37.7952 16.3278C37.6957 16.1975 37.56 16.0994 37.405 16.0459C37.2501 15.9923 37.0827 15.9857 36.924 16.0268C36.7653 16.0679 36.6222 16.1549 36.5127 16.2769L37.131 16.8335ZM36.301 21.7652C36.301 21.5442 36.2132 21.3322 36.0569 21.176C35.9007 21.0197 35.6887 20.9319 35.4677 20.9319C35.2467 20.9319 35.0347 21.0197 34.8784 21.176C34.7222 21.3322 34.6344 21.5442 34.6344 21.7652H36.301ZM13.8344 35.1669V34.3335C13.6554 34.3333 13.4812 34.3907 13.3374 34.4972C13.1936 34.6037 13.0879 34.7536 13.0359 34.9249C12.984 35.0961 12.9885 35.2795 13.0488 35.4479C13.1092 35.6164 13.2221 35.7609 13.371 35.8602L13.8344 35.1669ZM15.4977 16.8335L16.2794 16.5419C16.2226 16.3897 16.1225 16.2575 15.9916 16.1614C15.8606 16.0653 15.7044 16.0096 15.5423 16.0011C15.3801 15.9926 15.2189 16.0317 15.0787 16.1136C14.9384 16.1954 14.8251 16.3165 14.7527 16.4619L15.4977 16.8335ZM22.1544 31.8335L22.7444 32.4219C22.8445 32.3215 22.9173 32.1972 22.9559 32.0607C22.9946 31.9243 22.9978 31.7803 22.9653 31.6423C22.9327 31.5043 22.8655 31.3769 22.77 31.2721C22.6745 31.1673 22.5538 31.0887 22.4194 31.0435L22.1544 31.8335ZM34.1944 18.4552L33.5777 19.0152L33.8777 19.3469L34.3194 19.2802L34.1944 18.4552ZM36.301 16.8885C36.386 18.1852 36.306 18.9719 36.096 19.5652C35.8927 20.1402 35.536 20.6135 34.891 21.2319L36.0444 22.4352C36.7744 21.7352 37.3377 21.0485 37.6677 20.1219C37.9894 19.2119 38.056 18.1585 37.9644 16.7785L36.301 16.8885ZM36.301 22.9785V21.7652H34.6344V22.9802L36.301 22.9785ZM24.651 21.9019V23.5002H26.3177V21.9019H24.651ZM24.651 23.5002V24.3335H26.3177V23.5002H24.651ZM30.5427 16.0002C29.7681 16.0006 29.0012 16.1536 28.2857 16.4505C27.5703 16.7473 26.9203 17.1821 26.3729 17.7301C25.8255 18.2782 25.3914 18.9286 25.0954 19.6444C24.7994 20.3602 24.6473 21.1273 24.6477 21.9019H26.3144C26.3139 21.346 26.423 20.7955 26.6354 20.2818C26.8477 19.7682 27.1592 19.3013 27.552 18.9081C27.9448 18.5148 28.4113 18.2028 28.9247 17.9898C29.4381 17.7768 29.9885 17.6671 30.5444 17.6669L30.5427 16.0002ZM34.6327 22.9785C34.6344 30.1719 28.8127 36.0002 21.6344 36.0002V37.6669C29.7344 37.6669 36.301 31.0902 36.301 22.9785H34.6327ZM14.7177 17.1252C15.6244 19.5452 19.0244 24.3335 25.4844 24.3335V22.6669C19.9577 22.6669 17.036 18.5669 16.2777 16.5419L14.7177 17.1252ZM14.7527 16.4619C13.0077 19.9552 12.7394 23.3452 14.0077 26.2319C15.2727 29.1102 17.9944 31.3235 21.891 32.6235L22.4194 31.0435C18.8277 29.8435 16.556 27.8902 15.5327 25.5602C14.5127 23.2385 14.661 20.3769 16.2444 17.2052L14.7527 16.4619ZM21.5644 31.2452C20.561 32.2502 17.5444 34.3335 13.8344 34.3335V36.0002C18.111 36.0002 21.5294 33.6402 22.7444 32.4219L21.5644 31.2452ZM34.8127 17.8969C34.2738 17.2993 33.6154 16.8216 32.8801 16.4949C32.1448 16.1682 31.349 15.9996 30.5444 16.0002V17.6669C31.746 17.6669 32.8277 18.1852 33.5777 19.0152L34.8127 17.8969ZM34.3194 19.2802C35.6469 19.0633 36.8593 18.3959 37.7527 17.3902L36.5127 16.2769C35.8773 16.9948 35.0148 17.473 34.0694 17.6319L34.3194 19.2802ZM13.371 35.8602C16.106 37.6835 18.9727 37.6669 21.6344 37.6669V36.0002C18.9177 36.0002 16.5544 35.9819 14.2977 34.4735L13.371 35.8602Z" fill="black"/>
</svg>
