<svg width="209" height="40" viewBox="0 0 209 40" fill="none" xmlns="http://www.w3.org/2000/svg">
<path d="M10.5877 23.1084C10.3347 22.8592 10.0138 22.6904 9.66534 22.6232C9.31684 22.556 8.95627 22.5934 8.62893 22.7306C8.40593 22.8114 8.20341 22.9403 8.03571 23.1082C7.86801 23.2761 7.73925 23.4788 7.65854 23.702C7.54213 23.9756 7.49527 24.2738 7.52216 24.5699C7.54906 24.8661 7.64886 25.1509 7.81265 25.399C7.97644 25.647 8.19911 25.8506 8.46073 25.9914C8.72234 26.1323 9.01476 26.206 9.3118 26.206C9.60885 26.206 9.90126 26.1323 10.1629 25.9914C10.4245 25.8506 10.6472 25.647 10.811 25.399C10.9747 25.1509 11.0745 24.8661 11.1014 24.5699C11.1283 24.2738 11.0815 23.9756 10.9651 23.702C10.8742 23.484 10.7465 23.2832 10.5877 23.1084ZM24.9638 23.1084C24.6163 22.7874 24.1608 22.6092 23.688 22.6092C23.2151 22.6092 22.7596 22.7874 22.4121 23.1084C22.2533 23.2832 22.1256 23.484 22.0347 23.702C21.8947 24.0292 21.8558 24.3909 21.923 24.7404C21.9903 25.0899 22.1606 25.4112 22.4121 25.6628C22.5867 25.8218 22.7873 25.9496 23.0051 26.0406C23.2202 26.1357 23.4528 26.1848 23.688 26.1848C23.9231 26.1848 24.1557 26.1357 24.3708 26.0406C24.5884 25.9492 24.789 25.8215 24.9638 25.6628C25.2153 25.4112 25.3856 25.0899 25.4529 24.7404C25.5202 24.3909 25.4813 24.0292 25.3412 23.702C25.2503 23.484 25.1227 23.2832 24.9638 23.1084ZM29.6361 31.3923C30.9081 30.3772 31.8791 29.0336 32.4441 27.5064C33.009 25.9793 33.1466 24.3267 32.842 22.727L30.1465 8.33589C29.76 6.27421 28.666 4.41255 27.0534 3.07297C25.4409 1.73338 23.4114 1.00011 21.3159 1H11.6821C9.58691 1.00053 7.5578 1.73399 5.94564 3.07354C4.33349 4.41309 3.23966 6.27451 2.85331 8.33589L0.157781 22.727C-0.146674 24.3269 -0.0088045 25.9796 0.556504 27.5067C1.12181 29.0339 2.09309 30.3774 3.36546 31.3923L0.853228 33.9072C0.681594 34.0731 0.544693 34.2716 0.450513 34.4911C0.356333 34.7106 0.30676 34.9466 0.304686 35.1855C0.302613 35.4243 0.348081 35.6612 0.438436 35.8823C0.528792 36.1034 0.662227 36.3042 0.830954 36.4731C0.999681 36.642 1.20032 36.7756 1.42117 36.866C1.64202 36.9565 1.87865 37.002 2.11725 36.9999C2.35586 36.9979 2.59167 36.9482 2.81091 36.854C3.03015 36.7597 3.22844 36.6226 3.39421 36.4508L6.75464 33.0869C7.48283 33.2776 8.23205 33.3761 8.98474 33.3801H24.0114C24.7652 33.377 25.5157 33.2791 26.2451 33.0887L29.6038 36.4508C29.9427 36.7785 30.3966 36.9598 30.8678 36.9557C31.3389 36.9516 31.7897 36.7624 32.1228 36.4289C32.456 36.0954 32.645 35.6442 32.6491 35.1725C32.6532 34.7009 32.4721 34.2465 32.1447 33.9072L29.6361 31.3923ZM6.38266 8.99968C6.61517 7.76243 7.27219 6.64538 8.24017 5.84162C9.20814 5.03785 10.4262 4.59789 11.6839 4.59779H21.3195C22.5765 4.59873 23.7937 5.03907 24.761 5.84276C25.7282 6.64646 26.3847 7.76304 26.6171 8.99968L27.2407 12.3276C25.899 13.8562 24.2472 15.0808 22.3954 15.9196C20.5436 16.7585 18.5343 17.1925 16.5017 17.1925C14.4691 17.1925 12.4598 16.7585 10.608 15.9196C8.75614 15.0808 7.10431 13.8562 5.76269 12.3276L6.38266 8.99968ZM28.1572 27.8323C27.6526 28.4428 27.0194 28.9342 26.3031 29.2713C25.5867 29.6084 24.8048 29.7829 24.0132 29.7823H8.98654C8.19447 29.7822 7.41216 29.6073 6.69526 29.2701C5.97836 28.933 5.34449 28.4418 4.83872 27.8316C4.33294 27.2214 3.96771 26.5072 3.76898 25.7396C3.57025 24.9721 3.54292 24.1702 3.68892 23.3908L4.96661 16.5694C8.19329 19.294 12.2786 20.7885 16.4999 20.7885C20.7212 20.7885 24.8065 19.294 28.0332 16.5694L29.309 23.3908C29.4564 24.1702 29.4297 24.9726 29.2308 25.7405C29.032 26.5084 28.666 27.2227 28.159 27.8323" fill="#35B368"/>
<path d="M50.608 32V20.832L50.832 22.4L41.776 9.6H47.952L54.864 19.52L52.048 19.424L58.288 9.6H64.272L55.6 22.752L56.08 20.576V32H50.608ZM75.9615 32.32C74.2548 32.32 72.6975 32.032 71.2895 31.456C69.8815 30.88 68.6548 30.0693 67.6095 29.024C66.5642 27.9787 65.7535 26.752 65.1775 25.344C64.6015 23.936 64.3135 22.3893 64.3135 20.704C64.3135 19.0187 64.6015 17.472 65.1775 16.064C65.7535 14.656 66.5642 13.4293 67.6095 12.384C68.6548 11.3387 69.8815 10.528 71.2895 9.952C72.6975 9.376 74.2442 9.088 75.9295 9.088C77.6148 9.088 79.1615 9.376 80.5695 9.952C81.9775 10.528 83.2042 11.3387 84.2495 12.384C85.2948 13.4293 86.0948 14.656 86.6495 16.064C87.2255 17.472 87.5135 19.0187 87.5135 20.704C87.5135 22.368 87.2255 23.9147 86.6495 25.344C86.0948 26.752 85.2948 27.9787 84.2495 29.024C83.2042 30.0693 81.9775 30.88 80.5695 31.456C79.1615 32.032 77.6255 32.32 75.9615 32.32ZM75.9295 27.2C76.8042 27.2 77.6042 27.04 78.3295 26.72C79.0762 26.4 79.7162 25.952 80.2495 25.376C80.8042 24.7787 81.2308 24.0853 81.5295 23.296C81.8282 22.5067 81.9775 21.6427 81.9775 20.704C81.9775 19.7653 81.8282 18.9013 81.5295 18.112C81.2308 17.3227 80.8042 16.64 80.2495 16.064C79.7162 15.4667 79.0762 15.008 78.3295 14.688C77.6042 14.368 76.8042 14.208 75.9295 14.208C75.0548 14.208 74.2442 14.368 73.4975 14.688C72.7722 15.008 72.1322 15.4667 71.5775 16.064C71.0228 16.64 70.5962 17.3227 70.2975 18.112C70.0202 18.9013 69.8815 19.7653 69.8815 20.704C69.8815 21.6427 70.0202 22.5173 70.2975 23.328C70.5962 24.1173 71.0228 24.8 71.5775 25.376C72.1322 25.952 72.7722 26.4 73.4975 26.72C74.2442 27.04 75.0548 27.2 75.9295 27.2ZM101.162 32.192C99.3063 32.192 97.6529 31.8187 96.2023 31.072C94.7516 30.304 93.6103 29.2587 92.7783 27.936C91.9676 26.6133 91.5623 25.0987 91.5623 23.392V9.6H97.0663V23.104C97.0663 23.9147 97.2476 24.6507 97.6103 25.312C97.9729 25.952 98.4636 26.464 99.0823 26.848C99.7009 27.2107 100.394 27.392 101.162 27.392C101.973 27.392 102.688 27.2107 103.306 26.848C103.946 26.464 104.458 25.952 104.842 25.312C105.226 24.6507 105.418 23.9147 105.418 23.104V9.6H110.73V23.392C110.73 25.0987 110.314 26.6133 109.482 27.936C108.672 29.2587 107.541 30.304 106.09 31.072C104.64 31.8187 102.997 32.192 101.162 32.192ZM116.191 32V9.6H126.271C127.7 9.6 128.991 9.90933 130.143 10.528C131.316 11.1467 132.234 12 132.895 13.088C133.556 14.1547 133.887 15.3707 133.887 16.736C133.887 18.144 133.556 19.4133 132.895 20.544C132.234 21.6533 131.327 22.528 130.175 23.168C129.023 23.808 127.722 24.128 126.271 24.128H121.375V32H116.191ZM128.607 32L122.911 21.888L128.479 21.088L134.815 32H128.607ZM121.375 19.968H125.791C126.346 19.968 126.826 19.8507 127.231 19.616C127.658 19.36 127.978 19.008 128.191 18.56C128.426 18.112 128.543 17.6 128.543 17.024C128.543 16.448 128.415 15.9467 128.159 15.52C127.903 15.072 127.53 14.7307 127.039 14.496C126.57 14.2613 125.994 14.144 125.311 14.144H121.375V19.968Z" fill="#282828"/>
<path d="M142.661 32L135.941 9.6H141.477L144.837 21.376C144.986 21.9093 145.114 22.4533 145.22 23.008C145.349 23.5413 145.445 24.0533 145.509 24.544C145.594 25.0347 145.658 25.4933 145.701 25.92C145.743 26.3253 145.786 26.6667 145.829 26.944H145.125C145.253 26.1547 145.359 25.4507 145.445 24.832C145.551 24.2133 145.669 23.6373 145.797 23.104C145.925 22.5493 146.085 21.9733 146.277 21.376L149.605 12.512H153.957L157.221 21.376C157.477 22.08 157.69 22.7413 157.861 23.36C158.031 23.9787 158.159 24.576 158.245 25.152C158.351 25.7067 158.437 26.2613 158.501 26.816L157.861 26.912C157.903 26.528 157.935 26.176 157.957 25.856C157.978 25.5147 157.999 25.1947 158.021 24.896C158.063 24.576 158.106 24.2453 158.149 23.904C158.191 23.5627 158.255 23.1893 158.341 22.784C158.426 22.3573 158.543 21.8773 158.693 21.344L162.021 9.6H167.429L160.709 32H156.549L151.237 19.104L151.845 19.168L146.949 32H142.661ZM166.28 32L175.145 9.6H179.753L188.553 32H183.049L178.825 20.64C178.654 20.192 178.483 19.712 178.313 19.2C178.142 18.688 177.971 18.1653 177.801 17.632C177.63 17.0773 177.459 16.544 177.289 16.032C177.139 15.4987 177.011 15.008 176.905 14.56L177.865 14.528C177.737 15.0613 177.587 15.584 177.417 16.096C177.267 16.608 177.107 17.12 176.937 17.632C176.787 18.1227 176.617 18.624 176.425 19.136C176.233 19.6267 176.051 20.1387 175.881 20.672L171.657 32H166.28ZM170.505 27.712L172.201 23.616H182.505L184.169 27.712H170.505ZM194.577 32V20.832L194.801 22.4L185.745 9.6H191.921L198.833 19.52L196.017 19.424L202.257 9.6H208.241L199.569 22.752L200.049 20.576V32H194.577Z" fill="#35B368"/>
</svg>
